<mxfile host="Electron" agent="Mozilla/5.0 (Windows NT 10.0; Win64; x64) AppleWebKit/537.36 (KHTML, like Gecko) draw.io/24.7.8 Chrome/128.0.6613.36 Electron/32.0.1 Safari/537.36" version="24.7.8">
  <diagram id="khAt142Cb1nLgVwI4vfd" name="第 1 页">
    <mxGraphModel dx="1925" dy="820" grid="1" gridSize="10" guides="1" tooltips="1" connect="1" arrows="1" fold="1" page="1" pageScale="1" pageWidth="827" pageHeight="1169" math="1" shadow="0">
      <root>
        <mxCell id="0" />
        <mxCell id="1" parent="0" />
        <mxCell id="n88lMZlOyhgczos9y7bR-42" value="" style="rounded=0;orthogonalLoop=1;jettySize=auto;html=1;exitX=1;exitY=0.5;exitDx=0;exitDy=0;entryX=0;entryY=0.5;entryDx=0;entryDy=0;fontFamily=Times New Roman;fontSize=15;" edge="1" parent="1" source="n88lMZlOyhgczos9y7bR-14" target="n88lMZlOyhgczos9y7bR-41">
          <mxGeometry relative="1" as="geometry" />
        </mxCell>
        <mxCell id="n88lMZlOyhgczos9y7bR-13" value="" style="shape=table;startSize=0;container=1;collapsible=0;childLayout=tableLayout;fontFamily=Times New Roman;fontSize=15;" vertex="1" parent="1">
          <mxGeometry x="120" y="320" width="267" height="40" as="geometry" />
        </mxCell>
        <mxCell id="n88lMZlOyhgczos9y7bR-14" value="" style="shape=tableRow;horizontal=0;startSize=0;swimlaneHead=0;swimlaneBody=0;strokeColor=inherit;top=0;left=0;bottom=0;right=0;collapsible=0;dropTarget=0;fillColor=none;points=[[0,0.5],[1,0.5]];portConstraint=eastwest;fontFamily=Times New Roman;fontSize=15;" vertex="1" parent="n88lMZlOyhgczos9y7bR-13">
          <mxGeometry width="267" height="40" as="geometry" />
        </mxCell>
        <mxCell id="n88lMZlOyhgczos9y7bR-15" value="" style="shape=partialRectangle;html=1;whiteSpace=wrap;connectable=0;strokeColor=inherit;overflow=hidden;fillColor=none;top=0;left=0;bottom=0;right=0;pointerEvents=1;fontFamily=Times New Roman;fontSize=15;" vertex="1" parent="n88lMZlOyhgczos9y7bR-14">
          <mxGeometry width="150" height="40" as="geometry">
            <mxRectangle width="150" height="40" as="alternateBounds" />
          </mxGeometry>
        </mxCell>
        <mxCell id="n88lMZlOyhgczos9y7bR-16" value="" style="shape=partialRectangle;html=1;whiteSpace=wrap;connectable=0;strokeColor=#d79b00;overflow=hidden;fillColor=#ffe6cc;top=0;left=0;bottom=0;right=0;pointerEvents=1;fontFamily=Times New Roman;fontSize=15;" vertex="1" parent="n88lMZlOyhgczos9y7bR-14">
          <mxGeometry x="150" width="37" height="40" as="geometry">
            <mxRectangle width="37" height="40" as="alternateBounds" />
          </mxGeometry>
        </mxCell>
        <mxCell id="n88lMZlOyhgczos9y7bR-17" value="" style="shape=partialRectangle;html=1;whiteSpace=wrap;connectable=0;strokeColor=#d79b00;overflow=hidden;fillColor=#ffe6cc;top=0;left=0;bottom=0;right=0;pointerEvents=1;fontFamily=Times New Roman;fontSize=15;" vertex="1" parent="n88lMZlOyhgczos9y7bR-14">
          <mxGeometry x="187" width="40" height="40" as="geometry">
            <mxRectangle width="40" height="40" as="alternateBounds" />
          </mxGeometry>
        </mxCell>
        <mxCell id="n88lMZlOyhgczos9y7bR-18" value="" style="shape=partialRectangle;html=1;whiteSpace=wrap;connectable=0;strokeColor=#d79b00;overflow=hidden;fillColor=#ffe6cc;top=0;left=0;bottom=0;right=0;pointerEvents=1;fontFamily=Times New Roman;fontSize=15;" vertex="1" parent="n88lMZlOyhgczos9y7bR-14">
          <mxGeometry x="227" width="40" height="40" as="geometry">
            <mxRectangle width="40" height="40" as="alternateBounds" />
          </mxGeometry>
        </mxCell>
        <mxCell id="n88lMZlOyhgczos9y7bR-25" value="" style="shape=table;startSize=0;container=1;collapsible=0;childLayout=tableLayout;fontFamily=Times New Roman;fontSize=15;" vertex="1" parent="1">
          <mxGeometry x="120" y="440" width="267" height="40" as="geometry" />
        </mxCell>
        <mxCell id="n88lMZlOyhgczos9y7bR-26" value="" style="shape=tableRow;horizontal=0;startSize=0;swimlaneHead=0;swimlaneBody=0;strokeColor=inherit;top=0;left=0;bottom=0;right=0;collapsible=0;dropTarget=0;fillColor=none;points=[[0,0.5],[1,0.5]];portConstraint=eastwest;fontFamily=Times New Roman;fontSize=15;" vertex="1" parent="n88lMZlOyhgczos9y7bR-25">
          <mxGeometry width="267" height="40" as="geometry" />
        </mxCell>
        <mxCell id="n88lMZlOyhgczos9y7bR-27" value="" style="shape=partialRectangle;html=1;whiteSpace=wrap;connectable=0;strokeColor=inherit;overflow=hidden;fillColor=none;top=0;left=0;bottom=0;right=0;pointerEvents=1;fontFamily=Times New Roman;fontSize=15;" vertex="1" parent="n88lMZlOyhgczos9y7bR-26">
          <mxGeometry width="110" height="40" as="geometry">
            <mxRectangle width="110" height="40" as="alternateBounds" />
          </mxGeometry>
        </mxCell>
        <mxCell id="n88lMZlOyhgczos9y7bR-28" value="" style="shape=partialRectangle;html=1;whiteSpace=wrap;connectable=0;strokeColor=#d79b00;overflow=hidden;fillColor=#ffe6cc;top=0;left=0;bottom=0;right=0;pointerEvents=1;fontFamily=Times New Roman;fontSize=15;" vertex="1" parent="n88lMZlOyhgczos9y7bR-26">
          <mxGeometry x="110" width="37" height="40" as="geometry">
            <mxRectangle width="37" height="40" as="alternateBounds" />
          </mxGeometry>
        </mxCell>
        <mxCell id="n88lMZlOyhgczos9y7bR-31" style="shape=partialRectangle;html=1;whiteSpace=wrap;connectable=0;strokeColor=#d79b00;overflow=hidden;fillColor=#ffe6cc;top=0;left=0;bottom=0;right=0;pointerEvents=1;fontFamily=Times New Roman;fontSize=15;" vertex="1" parent="n88lMZlOyhgczos9y7bR-26">
          <mxGeometry x="147" width="40" height="40" as="geometry">
            <mxRectangle width="40" height="40" as="alternateBounds" />
          </mxGeometry>
        </mxCell>
        <mxCell id="n88lMZlOyhgczos9y7bR-29" value="" style="shape=partialRectangle;html=1;whiteSpace=wrap;connectable=0;strokeColor=#d79b00;overflow=hidden;fillColor=#ffe6cc;top=0;left=0;bottom=0;right=0;pointerEvents=1;fontFamily=Times New Roman;fontSize=15;" vertex="1" parent="n88lMZlOyhgczos9y7bR-26">
          <mxGeometry x="187" width="40" height="40" as="geometry">
            <mxRectangle width="40" height="40" as="alternateBounds" />
          </mxGeometry>
        </mxCell>
        <mxCell id="n88lMZlOyhgczos9y7bR-30" value="" style="shape=partialRectangle;html=1;whiteSpace=wrap;connectable=0;strokeColor=#d79b00;overflow=hidden;fillColor=#ffe6cc;top=0;left=0;bottom=0;right=0;pointerEvents=1;fontFamily=Times New Roman;fontSize=15;" vertex="1" parent="n88lMZlOyhgczos9y7bR-26">
          <mxGeometry x="227" width="40" height="40" as="geometry">
            <mxRectangle width="40" height="40" as="alternateBounds" />
          </mxGeometry>
        </mxCell>
        <mxCell id="n88lMZlOyhgczos9y7bR-34" value="$$QL_A$$" style="text;html=1;align=center;verticalAlign=middle;whiteSpace=wrap;rounded=0;fontFamily=Times New Roman;fontSize=15;" vertex="1" parent="1">
          <mxGeometry x="280" y="290" width="60" height="30" as="geometry" />
        </mxCell>
        <mxCell id="n88lMZlOyhgczos9y7bR-35" value="$$QL_B$$" style="text;html=1;align=center;verticalAlign=middle;whiteSpace=wrap;rounded=0;fontFamily=Times New Roman;fontSize=15;" vertex="1" parent="1">
          <mxGeometry x="280" y="410" width="60" height="30" as="geometry" />
        </mxCell>
        <mxCell id="n88lMZlOyhgczos9y7bR-36" value="" style="endArrow=classic;html=1;rounded=0;entryX=0;entryY=0.5;entryDx=0;entryDy=0;fontFamily=Times New Roman;fontSize=15;" edge="1" parent="1" target="n88lMZlOyhgczos9y7bR-14">
          <mxGeometry width="50" height="50" relative="1" as="geometry">
            <mxPoint y="340" as="sourcePoint" />
            <mxPoint x="40" y="350" as="targetPoint" />
          </mxGeometry>
        </mxCell>
        <mxCell id="n88lMZlOyhgczos9y7bR-37" value="Link A" style="text;html=1;align=center;verticalAlign=middle;resizable=0;points=[];autosize=1;strokeColor=none;fillColor=none;fontFamily=Times New Roman;fontSize=15;" vertex="1" parent="1">
          <mxGeometry x="5" y="308" width="70" height="30" as="geometry" />
        </mxCell>
        <mxCell id="n88lMZlOyhgczos9y7bR-38" value="" style="endArrow=classic;html=1;rounded=0;entryX=0;entryY=0.5;entryDx=0;entryDy=0;fontFamily=Times New Roman;fontSize=15;" edge="1" parent="1">
          <mxGeometry width="50" height="50" relative="1" as="geometry">
            <mxPoint y="462" as="sourcePoint" />
            <mxPoint x="120" y="462" as="targetPoint" />
          </mxGeometry>
        </mxCell>
        <mxCell id="n88lMZlOyhgczos9y7bR-39" value="Link B" style="text;html=1;align=center;verticalAlign=middle;resizable=0;points=[];autosize=1;strokeColor=none;fillColor=none;fontFamily=Times New Roman;fontSize=15;" vertex="1" parent="1">
          <mxGeometry x="5" y="430" width="70" height="30" as="geometry" />
        </mxCell>
        <mxCell id="n88lMZlOyhgczos9y7bR-41" value="fusion transmission" style="whiteSpace=wrap;html=1;fontSize=15;fontFamily=Times New Roman;startSize=0;" vertex="1" parent="1">
          <mxGeometry x="470" y="380" width="100" height="40" as="geometry" />
        </mxCell>
        <mxCell id="n88lMZlOyhgczos9y7bR-43" style="rounded=0;orthogonalLoop=1;jettySize=auto;html=1;entryX=0;entryY=0.5;entryDx=0;entryDy=0;exitX=1;exitY=0.5;exitDx=0;exitDy=0;fontFamily=Times New Roman;fontSize=15;" edge="1" parent="1" source="n88lMZlOyhgczos9y7bR-26" target="n88lMZlOyhgczos9y7bR-41">
          <mxGeometry relative="1" as="geometry" />
        </mxCell>
      </root>
    </mxGraphModel>
  </diagram>
</mxfile>
